<svg xmlns="http://www.w3.org/2000/svg" enable-background="new 0 0 66 66" viewBox="0 0 66 66" width="256" height="256"><path d="M62.4,38.6c3.4-9.2,4.8-15.7-4.5-20.3c-7.3-3.6-18.8,5.4-25.4,0.1c-0.2-0.2-0.3-0.5-0.1-0.8c0.7-1.1,0.5-2.2-0.2-3.1
		c-0.7-0.9-1.7-1.4-2.9-1.7c-4.7-1-6.1,1-8.8,3.4c-0.5,0.4-1.1,0.7-1.8,0.8c-1.5,0.1-3-0.3-4.5-1c1.5-2.1,1.5-5.4,1.5-6.7
		c0-0.4-0.4-0.6-0.8-0.4c-0.3,0.2-0.8,1.4-0.8,1.4c-0.6,1.7-1.5,3.1-2.4,4.5c0,0-0.1,0-0.1,0c0.6-2,0.2-4.4,0-5.4
		c-0.1-0.3-0.5-0.5-0.7-0.3c-0.2,0.2-0.4,1.3-0.4,1.3c-0.3,1.8-1,3.5-1.8,5.1c-3.2,1.8-4,6-7.3,9c-0.3,0.3-0.4,0.8-0.2,1.2
		c0.5,0.7,1,1.3,1.6,1.6c0.2,0,0.4-0.1,0.6-0.2c1.1-0.6,1.3-3,2.9-2.3c0.1,0,0.1,0.1,0.1,0.2c0,0.1-0.1,0.1-0.2,0.1
		c-1.4-0.6-1.3,1.6-2.6,2.4c-0.1,0.1-0.2,0.1-0.3,0.1c0.5,0.1,1.1,0.1,1.7-0.2c0.1-0.1,0.4-0.1,0.5-0.1c0.3,0,0.5,0.1,0.8,0l2.4-0.3
		c0.4,0,0.8,0.1,1,0.4c5.5,4.4,6.4,10.9,14.1,13.4c-0.1-0.9-0.4-1.9-0.7-2.7l0,0c-0.1-0.1,0-0.3,0.2-0.4c0.1-0.1,0.3,0,0.4,0.1
		c0.4,0.7,0.6,1.5,0.8,2.2c0.2,0.8,0.3,1.6,0.3,2.3c0,1-0.6,3.6,0.4,5.9c0.1,0.2,0.2,0.4,0.2,0.7c0,1.6-0.2,3.2-1.1,4.7
		c0,0,0,0.1,0,0.1l-0.5,1.5C23.6,55.6,24,56,24.4,56h2.5c0.4,0,0.7-0.3,0.7-0.7v-0.3c-0.1-0.3-0.1-0.5,0.1-0.7
		c0.1-0.1,0.1-0.3,0.1-0.4c0-1.8,0.2-3.7,0.5-5.5c0.3-2.4,1.6-3.8,1.8-5.9c0-0.2,0.1-0.4,0.2-0.5c0.2-0.5,0.5-1,0.6-1.6
		c0.4-1.5,0.1-3.4-1-5l0,0c-0.1-0.1,0-0.3,0.1-0.3c0.1-0.1,0.2,0,0.3,0.1c1.2,1.6,1.9,3.8,1.3,6.1c7.5-1.6,17.1,2.2,20.5-2.7
		c0.6-0.8,1.5-1.4,2.5-1.3c-1-2.7-0.5-8,0.5-7.6c0,0-1.1,5,0.7,8c1.5,1.1,0.7,4,1.6,6.1c1.2,2.7,1,7.3-1,10.9c0,0,0,0.1-0.1,0.1
		l-1,1.3c-0.3,0.4-0.1,0.9,0.4,1l3,0.3c0.3,0,0.6-0.2,0.6-0.4l0.2-0.6c0-0.1,0-0.2,0-0.4c-0.2-0.5,0-0.9,0.4-1.2
		c0.2-0.1,0.3-0.3,0.3-0.6c-0.3-2.9,0.6-7.3,1.8-9.8c0.2-0.4,0.3-0.9,0.2-1.4C62,41.1,61.9,39.7,62.4,38.6z M2.6,24.9
		c-0.2,0.2-0.4,0.4-0.7,0.5c-0.1,0-0.2,0.1-0.3,0c-0.2-0.1-0.2-0.2-0.2-0.4c0-0.2,0.2-0.5,0.4-0.5c0.2-0.1,0.6-0.2,0.8-0.3
		c0.1,0,0.2,0,0.2,0.1C2.8,24.5,2.7,24.7,2.6,24.9z M10.4,19.2c-0.2,0-0.3,0.1-0.4,0.2c0,0,0,0,0,0c0,0,0,0-0.1,0.1
		c0-0.1,0-0.1-0.1-0.2C9.7,19,9.4,18.9,9.1,19c-0.1,0.1-0.2,0.1-0.2,0.2C9,19.3,9,19.4,9,19.5c0,0.1-0.1,0.1-0.2,0.1
		c0,0,0,0.1,0,0.1C8.9,19.9,9,19.9,9.1,20C9.1,20,9,20,9,20c-0.1,0-0.2,0-0.3-0.1c-0.1-0.1-0.3-0.1-0.4-0.1c0-0.2,0.1-0.3,0.1-0.5
		c0.1-0.2,0.2-0.3,0.3-0.4c0.1-0.1,0.3-0.2,0.5-0.2s0.4,0,0.6,0.1c0.1,0,0.1,0.1,0.2,0.1c0.2,0.1,0.4,0.2,0.7,0.3c0,0,0,0,0,0
		C10.6,19.2,10.5,19.2,10.4,19.2z M10.6,18.5c-0.8-0.2-0.5-0.6-1.5-0.5c-0.8,0.1-1.3,0.7-1.3,1.4C7.5,18.7,8,17.7,9,17.6
		c1.2-0.1,1,0.7,2.1,0.9C11,18.5,10.7,18.5,10.6,18.5z" fill="#000000" class="color000 svgShape"></path></svg>