<svg xmlns="http://www.w3.org/2000/svg" enable-background="new 0 0 2000 1431.533" viewBox="0 0 2000 1431.533" width="550" height="550"><path fill="#ed7e94" d="M1528.745 779.28s6.337-8.339 15.343-1.668 19.345 35.022 0 25.016-15.343-23.348-15.343-23.348zM1655.853 734.979c-2.832-11.043 1.417-23.185 1.417-23.185l-24.682 24.46.732 1.83c7.543.661 15.283-.499 22.533-3.105z" class="colored7e94 svgShape"></path><path fill="#ed7e94" d="M1642.816 715.574c-2.196-10.979 5.544-19.25 9.842-28.897l-8.508-5.458-31.353 27.517 19.79 27.517c10.242-3.096 17.884-7.019 23.502-10.835-6.465.028-11.877-2.169-13.273-9.844z" class="colored7e94 svgShape"></path><path fill="#ff96a9" d="m1670.167 711.238-10.006-13.342 1.668-5.337-9.17-5.883c-4.298 9.648-12.038 17.918-9.842 28.897 1.396 7.675 6.808 9.872 13.273 9.844 10.725-7.284 14.077-14.179 14.077-14.179z" class="colorff96a9 svgShape"></path><path fill="#322666" d="M1629.697 709.125s33.354-27.128 36.467-66.708c0 0-62.706 45.362-67.153 80.939 0 0 12.007 15.121 33.576 12.897l-4.225-19.568s-8.005 1.334-8.005-6.226 9.34-1.334 9.34-1.334z" class="color322666 svgShape"></path><path fill="#ed7e94" d="M1736.875 580.156s-20.888 4.601 6.226 28.462c11.118 9.784 12.897-17.788-6.226-28.462z" class="colored7e94 svgShape"></path><path fill="#f2f2f2" d="M1498.67 836.033a134.982 134.982 0 0 0 1.971 8.998 43.466 43.466 0 0 0 9.211 3.439 206.946 206.946 0 0 1-2.971-9.217 45.922 45.922 0 0 1-8.211-3.22z" class="colorf2f2f2 svgShape"></path><path fill="#ffffff" d="M1536.718 846.875a55.581 55.581 0 0 1-4.081-8.889c-7.644 3.795-17.182 3.717-25.756 1.266a206.946 206.946 0 0 0 2.971 9.217c8.849 2.22 18.316 1.697 26.866-1.594z" class="colorfff svgShape"></path><path fill="#ff96a9" d="M1736.068 589.568c-.899-1.847-1.552-3.92-2.227-6.021.413 2.069 1.182 4.1 2.227 6.021z" class="colorff96a9 svgShape"></path><path fill="#ff96a9" d="M1787.401 593.295c-5.352-21.539-15.177-36.41-30.958-33.151-19.157 3.956-24.469 14.055-22.601 23.403.675 2.101 1.329 4.174 2.227 6.021a25.2 25.2 0 0 0 1.981 3.079 9.863 9.863 0 0 0 4.162 2.853c9.339 4.003 20.679 6.671 29.352 0-1.334 4.003-6.671 8.005-6.671 10.006-.017.905-.036 1.813-.055 2.723 8.986-1.62 17.817-7.187 22.563-14.934z" class="colorff96a9 svgShape"></path><path fill="#ed7e94" d="M1771.563 595.499c-8.672 6.671-20.012 4.003-29.352 0a9.855 9.855 0 0 1-4.162-2.853c4.765 6.345 12.589 10.735 20.172 9.746 0 0 .458 2.314.994 6.328a29.58 29.58 0 0 0 5.622-.492c.019-.909.038-1.818.055-2.723 0-2.001 5.337-6.003 6.671-10.006z" class="colored7e94 svgShape"></path><path fill="#f2f2f2" d="M1759.216 608.72c.329 2.463.687 5.579.988 9.188a55.05 55.05 0 0 0 4.387-.624c.104-3.037.183-6.059.246-9.056a29.577 29.577 0 0 1-5.621.492z" class="colorf2f2f2 svgShape"></path><path fill="#ffffff" d="M1787.401 593.295c-4.746 7.747-13.577 13.315-22.564 14.933a685.666 685.666 0 0 1-.246 9.056c9.351-1.703 18.408-5.833 25.206-12.194-.669-4.094-1.465-8.045-2.396-11.795z" class="colorfff svgShape"></path><path fill="#322666" d="M1576.775 913.03c-25.349-4.003-48.697-20.012-58.703-43.36-2.81-6.744-5.678-13.874-8.22-21.2a43.466 43.466 0 0 1-9.211-3.439c9.738 38.28 37.352 77.537 83.694 73.558 0 0 38.246-44.472 36.467-86.721l5.07-3.016c-2.762-4.038-5.803-7.81-9.073-11.215-1.333 36.023-19.345 67.376-40.024 95.393zM1700.852 770.275c2.233 3.189 4.315 6.682 6.607 10.044l.064-.038s64.04-44.027 77.381-79.605c2.973-7.928 5.239-19.721 6.513-33.167-13.221 45.796-44.735 86.803-90.565 102.766z" class="color322666 svgShape"></path><path fill="#3f327a" d="M1789.797 605.09c-6.798 6.362-15.855 10.491-25.206 12.194-.631 18.42-2.264 37.385-7.928 54.583-1.817 7.371-4.332 14.718-7.781 21.693 0 0-24.904 33.185-54.701 45.722l-28.018 9.424-24.682 9.784-44.695 26.239-24.904 89.834s-22.845-6.099-35.165-27.687c-8.55 3.291-18.017 3.814-26.866 1.595 2.542 7.326 5.41 14.456 8.22 21.2 10.006 23.348 33.354 39.358 58.703 43.36 20.679-28.017 38.691-59.37 40.025-95.393 3.269 3.405 6.311 7.177 9.073 11.215l81.587-48.534c-2.292-3.362-4.375-6.855-6.607-10.044 45.83-15.963 77.344-56.97 90.565-102.766 1.855-19.572 1.608-42.648-1.62-62.419z" class="color3f327a svgShape"></path><path fill="#322666" d="M1760.203 617.908c1.119 13.414 1.433 33.778-3.541 53.96 5.664-17.198 7.297-36.163 7.928-54.583a55.507 55.507 0 0 1-4.387.623z" class="color322666 svgShape"></path><path fill="#ed7e94" d="M1507.076 780.383c-9.972 8.959-12.847 31.389-8.406 55.65a45.785 45.785 0 0 0 8.211 3.219c-5.896-19.957-8.298-40.774.195-58.869zM1529.19 820.75s9.339 9.339 14.231 3.113c2.44-3.105 6.206-15.282 4.238-26.544.144 5.848-.612 11.634-2.904 16.982-4.67 9.339-16.677 4.003-22.014-2.001 0 9.537 3.308 18.376 8.23 26.433.563-.232 1.12-.477 1.665-.748-1.809-5.069-3.047-10.786-3.446-17.235z" class="colored7e94 svgShape"></path><path fill="#ff96a9" d="M1544.755 814.302c2.292-5.348 3.048-11.135 2.904-16.982-1.978-11.317-9.746-21.71-30.477-21.042-3.928.127-7.298 1.582-10.106 4.105-8.493 18.095-6.091 38.911-.195 58.869 7.962 2.276 16.754 2.5 24.09-.518-4.922-8.057-8.23-16.896-8.23-26.433 5.337 6.004 17.344 11.34 22.014 2.001z" class="colorff96a9 svgShape"></path><path fill="#3f327a" d="M1718.864 916.366s85.12 124.813 114.136 219.867h-283.162s132.95-48.027 201.552-54.031c0 0-66.622-51.279-78.555-129.199-11.934-77.92 46.029-36.637 46.029-36.637z" class="color3f327a svgShape"></path><path fill="#322666" d="M1705.295 908.963c-16.323-6.807-40.583-8.997-32.46 44.04 11.933 77.92 78.555 129.199 78.555 129.199-68.603 6.003-201.552 54.031-201.552 54.031h45.023l189.376-33.084c-37.972-45.226-64.646-135.202-78.942-194.186z" class="color322666 svgShape"></path><path fill="#322666" d="m1686.836 921.284-54.248 8.331s-11.035 22.95-21.286 54.507c15.047 11.225 31.47 20.556 50.193 24.301 9.269-28.967 20.044-57.431 25.341-87.139z" class="color322666 svgShape"></path><path fill="#3f327a" d="m1718.864 916.366-32.028 4.919c-5.297 29.708-16.072 58.172-25.342 87.139-18.724-3.745-35.146-13.076-50.193-24.301-9.073 27.93-17.531 62.602-17.182 94.077 0 0-112.32 6.003-197.369 58.033h231.132s66.038-138.079 67.038-163.093c21.496-10.15 27.71-30.221 23.944-56.774z" class="color3f327a svgShape"></path><path fill="#322666" d="m1658.15 916.625.676 6.412c37.357 18.011 60.037-6.671 60.037-6.671a60.513 60.513 0 0 1-1.586-7.711c-17.77 11.927-39.626 17.843-59.127 7.97z" class="color322666 svgShape"></path><path fill="#ffffff" d="M1717.278 908.655c-4.142-29.406 11.393-62.191 1.586-98.355-10.673-39.358-52.7-61.594-52.7-61.594l-24.682 9.784 16.668 158.135c19.501 9.873 41.357 3.957 59.128-7.97z" class="colorfff svgShape"></path><path fill="#f2f2f2" d="m1646.61 773.388 29.338 22.68-1.112-21.042 16.583 8.146-9.593-31.131 5.171 24.207-14.162-3.972-1.557 14.453z" class="colorf2f2f2 svgShape"></path><path fill="#e5649a" d="m1674.836 775.026.507 9.591 10.166 5.17-1.265-10.14z" class="colore5649a svgShape"></path><path fill="#db4a87" d="M1681.877 784.145c1.077 4.17 19.13 76.352-9.042 121.618l34.355 27.947.355-.806c12.057-50.436 6.387-106.563-25.668-148.759z" class="colordb4a87 svgShape"></path><path fill="#322666" d="m1616.441 823.307 4.362 8.562s14.693 15.396 20.218 35.432c-2.536-18.453-11.761-36.684-24.221-49.663a117.691 117.691 0 0 1-.359 5.669z" class="color322666 svgShape"></path><path fill="#3f327a" d="m1641.482 758.49-44.695 26.239 19.653 38.579c.162-1.878.289-3.766.359-5.669 12.46 12.979 21.685 31.211 24.221 49.663 3.285 11.91 3.331 25.459-4.875 38.392-22.014 34.688-42.026 42.693-42.026 42.693s18.456 38.691 58.592 50.031c0-.001 84.164-140.978-11.229-239.928z" class="color3f327a svgShape"></path><path fill="#322666" d="m1676.294 745.299 26.338 10.078-3.113 10.229 31.13 4.003s20.902 54.478-12.897 108.846c0 0 7.305-56.635-11.085-85.275s-40.503-44.472-40.503-44.472l10.13-3.409zM1417.887 1124.476l4.878-34.054-123.071 45.811h97.056s17.346-3.438 21.137-11.757z" class="color322666 svgShape"></path><path fill="#ff96a9" d="M1655.853 734.979c-7.25 2.605-14.989 3.766-22.533 3.104l8.163 20.406 31.353 13.786-6.671-23.57c-5.934-3.328-8.946-8.399-10.312-13.726z" class="colorff96a9 svgShape"></path><path fill="#ffffff" d="m1657.27 711.794 5.559-8.227s4.002 4.67 2.224 8.227c-1.78 3.558-7.783 0-7.783 0z" class="colorfff svgShape"></path><path fill="#322666" d="m1641.482 758.49-9.911 5.818 3.584 20.42 11.455 1.334-14.022 25.814s44.636 48.791 52.893 86.869c5.27-44.403-1.766-96.447-43.999-140.255z" class="color322666 svgShape"></path><path fill="#e5649a" d="m1681.826 783.95.051.195c32.055 42.196 37.725 98.323 25.668 148.759l19.657-44.556s-3.697-64.04-45.376-104.398z" class="colore5649a svgShape"></path><path fill="#322666" d="M1681.826 906.964a3.495 3.495 0 1 1-6.99 0 3.495 3.495 0 0 1 6.99 0zM1678.331 922.63a3.495 3.495 0 1 1-6.99 0 3.495 3.495 0 0 1 6.99 0zM1659.282 942.382c-.374 0-.752-.105-1.089-.324l-29.365-19.096a2.003 2.003 0 0 1 2.182-3.356l29.365 19.096a2.003 2.003 0 0 1-1.093 3.68z" class="color322666 svgShape"></path><path fill="#3f327a" d="m1724.117 772.943-.058-.002-10.725-.917a.668.668 0 0 1-.608-.722.66.66 0 0 1 .722-.608l10.725.917a.668.668 0 0 1-.056 1.332z" class="color3f327a svgShape"></path><path fill="#322666" d="M1610.129 1101.814c-2.233-21.77 9.342-62.924 23.561-103.431-7.835-4.072-15.268-8.95-22.389-14.261-9.073 27.93-17.531 62.602-17.182 94.077 0 0-112.32 6.003-197.369 58.033l213.379-34.418z" class="color322666 svgShape"></path><circle cx="1504.986" cy="842.075" r="2.09" fill="#ffffff" class="colorfff svgShape"></circle><path fill="#3f327a" d="M1513.936 856.353a3.527 3.527 0 1 1-7.054 0 3.527 3.527 0 0 1 7.054 0zM1517.463 865.192a3.527 3.527 0 1 1-7.054 0 3.527 3.527 0 0 1 7.054 0zM1521.382 873.531a3.527 3.527 0 1 1-7.054 0 3.527 3.527 0 0 1 7.054 0zM992.884 669.648c-13.758-8.262-30.081-16.131-48.877-22.044 0 0 11.758 20.419 28.436 46.864 6.068-8.903 12.592-17.361 20.441-24.82z" class="color3f327a svgShape"></path><path fill="#322666" d="M944.006 647.605s11.758 20.419 28.436 46.864a218.872 218.872 0 0 1 6.059-8.479l-34.495-38.385z" class="color322666 svgShape"></path><path fill="#322666" d="M963.273 654.655v-28.773l-104.391 83.875z" class="color322666 svgShape"></path><path fill="#ed7e94" d="M1105.085 147.311s-4.655-3.436-9.333 2.472c-4.678 5.907-5.933 25.193 2.816 25.146 8.749-.046 13.427-20.383 6.517-27.618zM924.293 328.775s12.087-17.816 21.34-10.405 17.7 29.536 7.643 32.352c-10.057 2.817-28.983-21.947-28.983-21.947zM1078.929 322.161l-34.998-10.459s7.561 8.272 12.104 21.434c7.977-1.025 15.773-4.089 22.642-8.384.021-.888.097-1.757.252-2.591z" class="colored7e94 svgShape"></path><path fill="#ed7e94" d="m1048.355 271.876-4.616 6.316c8.466 5.058 18.356 9.222 20.908 19.429 3.674 11.94-5.235 20.03-15.553 24.016 7.907 1.836 18.235 2.843 29.834.523.001.001 46.263-32.181-30.573-50.284z" class="colored7e94 svgShape"></path><path fill="#ff96a9" d="M1064.648 297.622c-2.552-10.208-12.442-14.372-20.908-19.429l-10.671 14.602 4.023 3.62-4.023 19.309s6.108 3.61 16.025 5.913c10.318-3.985 19.227-12.075 15.554-24.015z" class="colorff96a9 svgShape"></path><path fill="#322666" d="M1077.319 294.001s-41.032-12.068-64.767-54.308c0 0 69.996 21.723 98.961 54.308 0 0-4.425 20.919-32.585 28.16l-2.816-19.712s8.046 3.62 9.252-4.827c1.208-8.448-8.045-3.621-8.045-3.621z" class="color322666 svgShape"></path><path fill="#e8c3eb" d="M899.886 391.346c.337 3.332.771 6.783 1.316 10.316 8.746 4.53 18.819 6.311 28.691 5.704a83.123 83.123 0 0 1-4.389-10.442c-9.069.391-18.247-1.321-25.618-5.578z" class="colore8c3eb svgShape"></path><path fill="#e8c3eb" d="M931.714 396.327a59.204 59.204 0 0 1-6.211.597 83.271 83.271 0 0 0 4.389 10.442 60.818 60.818 0 0 0 5.598-.594c-1.476-3.359-2.763-6.85-3.776-10.445zM1139.975 191.541c.954 2.443 1.97 5.124 3.003 7.974 7.42-4.428 13.949-10.885 18.149-18.364a145.358 145.358 0 0 0-5.011-9.769c-3.061 8.38-8.758 15.889-16.141 20.159z" class="colore8c3eb svgShape"></path><path fill="#e8c3eb" d="M1158.26 162.815a41.594 41.594 0 0 1-2.145 8.568 145.839 145.839 0 0 1 5.011 9.769c1.456-2.592 2.636-5.306 3.471-8.103a198.345 198.345 0 0 0-6.337-10.234zM954.826 485.285c-10.507-5.072-21.664-12.758-30.602-22.267 8.385 12.123 19.451 23.14 34.022 31.721 0 0 61.951-30.975 80.053-76.031l3.569-1.898c-4.103-7.131-7.369-14.639-8.598-23.244-18.706 35.601-47.067 66.375-78.444 91.719z" class="colore8c3eb svgShape"></path><path fill="#f2f2f2" d="M1142.978 199.515c3.408 9.406 7.005 20.679 9.243 31.503-.828-10.987-3.563-22.076-6.851-33.028a51.298 51.298 0 0 1-2.392 1.525z" class="colorf2f2f2 svgShape"></path><path fill="#f6def8" d="M1178.694 249.952c-3.083-24.219-7.458-47.152-17.567-68.8-3.742 6.663-9.335 12.51-15.758 16.839 3.288 10.952 6.022 22.041 6.851 33.028 2.358 11.402 3.208 22.306.728 29.996 0 0-24.941 67.18-49.48 83.272l-16.493 5.028-27.757 7.442-34.596 16.896-58.733 74.019s-5.959-5.124-13.066-13.641c-9.788-6.509-17.528-15.941-22.929-26.665-9.873.607-19.946-1.174-28.691-5.704 3.032 19.655 9.583 41.927 23.022 61.355 8.939 9.51 20.095 17.195 30.602 22.267 31.378-25.344 59.738-56.118 78.444-91.72 1.229 8.605 4.495 16.113 8.598 23.244l93.048-49.486a161.089 161.089 0 0 0-4.496-11.773c30.773-25.342 53.1-64.565 48.273-105.597z" class="colorf6def8 svgShape"></path><path fill="#e8c3eb" d="M1189.153 247.337c-.934-23.731-11.42-51.62-24.555-74.289-.834 2.797-2.015 5.511-3.471 8.103 10.109 21.649 14.484 44.581 17.567 68.8 4.827 41.032-17.499 80.255-48.274 105.598a161.089 161.089 0 0 1 4.496 11.773l10.791-5.739c0 .001 45.457-63.156 43.446-114.246zM952.822 434.031c-5.901-7.072-12.593-16.479-17.331-27.258a61.597 61.597 0 0 1-5.598.594c5.401 10.724 13.141 20.155 22.929 26.664z" class="colore8c3eb svgShape"></path><path fill="#ed7e94" d="M1138.868 162.456c-8.448 12.068-24.137 16.292-36.808 9.655a7.953 7.953 0 0 1-1.849-1.316c.873 1.695 1.953 3.23 3.257 4.534 11.666 11.666 30.573 2.011 30.573 2.011s2.595 5.656 5.934 14.2a30.895 30.895 0 0 0 2.812-1.844c-1.505-4.699-3.049-9.36-4.522-13.966-1.207-3.016 1.207-8.446.603-13.274z" class="colored7e94 svgShape"></path><path fill="#ff96a9" d="M1156.116 171.382a142.91 142.91 0 0 0-8.8-13.753c-7.803-11.016-18.402-23.07-31.527-26.886-16.676 5.565-22.099 27.4-15.579 40.052a7.953 7.953 0 0 0 1.849 1.316c12.672 6.638 28.361 2.414 36.808-9.655.604 4.827-1.81 10.258-.603 13.275 1.474 4.605 3.018 9.267 4.522 13.966 6.019-4.412 10.671-11.034 13.33-18.315z" class="colorff96a9 svgShape"></path><path fill="#ed7e94" d="M1119.156 129.872c-1.17.217-2.291.512-3.367.872 13.124 3.815 23.724 15.869 31.527 26.886a143.033 143.033 0 0 1 8.8 13.753 41.707 41.707 0 0 0 2.145-8.568c-13.746-20.724-29.052-34.805-39.105-32.943z" class="colored7e94 svgShape"></path><path fill="#ff96a9" d="M921.034 367.015c6.034 7.241 17.499 10.862 24.137 4.224 7.864-8.692 6.075-20.791 3.007-32.402-3.645-10.523-8.877-19.628-14.472-22.71-15.486-8.53-31.349 15.433-33.792 33.188 0 0-2.462 17.987-.029 42.031 7.371 4.257 16.549 5.969 25.618 5.578-3.338-9.743-4.898-20.053-4.469-29.909z" class="colorff96a9 svgShape"></path><path fill="#ed7e94" d="M929.281 378.882s7.643 11.264 19.309 2.414c7.16-5.432 5.379-25.737-.412-42.459 3.068 11.611 4.857 23.71-3.007 32.402-6.638 6.638-18.102 3.017-24.137-4.224-.429 9.856 1.131 20.166 4.47 29.909 2.084-.09 4.162-.29 6.211-.597-1.58-5.603-2.499-11.455-2.434-17.445z" class="colored7e94 svgShape"></path><path fill="#3f327a" d="M897.501 525.714c53.101 5.431 106.202 11.465 159.906 7.241 11.181-.958 22.362-3.271 32.827-7.473l-38.861-11.233s-107.408-24.74-198.525-8.448c0 0 18.52 131.416 78.141 234.968 3.346-73.383-.752-148.023-33.488-215.055z" class="color3f327a svgShape"></path><path fill="#322666" d="M1090.234 525.482c-10.465 4.202-21.646 6.514-32.827 7.473-53.704 4.224-106.805-1.81-159.906-7.241 32.737 67.032 36.834 141.672 33.488 215.055.302.524.603 1.049.907 1.572 0 0 15.689-113.443-8.448-185.853 0 0 91.518 33.791 142.004 31.981 50.486-1.81 63.158-51.894 63.158-51.894l-38.376-11.093z" class="color322666 svgShape"></path><path fill="#322666" d="m933.892 724.313 29.381 7.77-104.391 94.737z" class="color322666 svgShape"></path><path fill="#3f327a" d="M1128.61 536.576s-40.468-41.391-77.238-22.326c0 0-16.127 41.582 10.661 65.169 0 0-19.72 77.494-15.473 135.166 0 0-18.411-23.758-53.676-44.935-7.849 7.458-14.372 15.917-20.442 24.82 23.928 37.942 57.984 88.292 81.985 108.559 0-.001 75.543-101.278 74.183-266.453z" class="color3f327a svgShape"></path><path fill="#322666" d="M1128.61 536.576s-11.224-11.475-27.217-19.559c-2.957 67.07-13.455 180.997-50.02 250.064l-72.871-81.091a217.042 217.042 0 0 0-6.059 8.479c23.928 37.942 57.984 88.292 81.985 108.559-.001 0 75.542-101.277 74.182-266.452zM1054.251 506.261a57.908 57.908 0 0 1-2.879 7.988s3.502 6.202 11.441 12.537a67.83 67.83 0 0 0 15.469.724c-10.021-4.165-17.816-12.158-24.031-21.249z" class="color322666 svgShape"></path><path fill="#f6def8" d="M1137.058 478.044c10.862-40.429 9.655-84.479-6.638-122.494a149.563 149.563 0 0 0 8.905-7.957l-4.077-8.938-102.179 48.273s-14.281 31.981 4.425 57.325c16.429 22.259 22.149 42.656 16.757 62.009 6.214 9.091 14.01 17.084 24.031 21.249 8.305-.57 16.563-2.714 24.381-6.623 16.896-9.052 29.567-24.741 34.395-42.844z" class="colorf6def8 svgShape"></path><path fill="#e8c3eb" d="m1145.707 361.584-6.382-13.992a148.593 148.593 0 0 1-8.905 7.957c16.292 38.015 17.499 82.065 6.638 122.494-4.827 18.103-17.499 33.791-34.395 42.843-7.818 3.909-16.075 6.053-24.381 6.623 4.285 1.781 8.974 2.865 14.123 3.031 13.532.437 27.694.239 40.89-3.1 11.382-24.012 37.77-92.204 12.412-165.856z" class="colore8c3eb svgShape"></path><path fill="#322666" d="M1092.405 530.542c-5.149-.166-9.838-1.251-14.123-3.031a67.773 67.773 0 0 1-15.469-.724c11.56 9.225 32.527 18.733 65.797 9.789 0 0 1.893-3.243 4.685-9.134-13.196 3.339-27.358 3.536-40.89 3.1z" class="color322666 svgShape"></path><path fill="#ff96a9" d="M1078.676 324.752c-6.868 4.295-14.665 7.359-22.642 8.384 2.327 6.742 3.864 14.764 3.183 23.621l17.298 30.171 10.459-37.613s-8.564-13.884-8.298-24.563z" class="colorff96a9 svgShape"></path><path fill="#ffffff" d="m1037.494 303.254 11.786 4.224s-4.545 7.04-8.769 5.632c-4.224-1.408-3.017-9.856-3.017-9.856z" class="colorfff svgShape"></path><path fill="#e8c3eb" d="M1103.997 418.008a1.508 1.508 0 0 1-.582-2.901l31.77-13.282a1.508 1.508 0 1 1 1.164 2.784l-31.77 13.282c-.191.08-.388.117-.582.117zM1052.981 364.803l15.257 45.055 8.478-20.022 11.666 16.301 6.638-50.474-8.046 43.937-10.459-12.672-8.277 14.919z" class="colore8c3eb svgShape"></path><path fill="#e5649a" d="m1076.716 389.836-4.613 10.893 5.449 8.324 5.448-10.436z" class="colore5649a svgShape"></path><path fill="#db4a87" d="M1078.783 403.19c.057-2.145.146-3.343.146-3.343-24.137 74.87-4.928 131.499-4.928 131.499l45.391 31.974c-38.763-42.628-53.333-104.138-40.609-160.13z" class="colordb4a87 svgShape"></path><path fill="#e5649a" d="M1128.628 510.83c-48.952-26.928-50.254-92.157-49.845-107.639-12.724 55.991 1.846 117.502 40.609 160.129l2.581 1.818 6.655-54.308z" class="colore5649a svgShape"></path><path fill="#ffffff" d="M1162.367 171.902a2.054 2.054 0 1 1-4.108 0 2.054 2.054 0 0 1 4.108 0z" class="colorfff svgShape"></path><circle cx="928.764" cy="401.777" r="2.363" fill="#ffffff" class="colorfff svgShape"></circle><path fill="#ed7e94" d="M574.283 662.616s-4.591-5.871-13.399-3.553c-8.809 2.317-19.298 11.412-17.463 17.457 1.236 4.073 13.509 12.368 30.862-13.904zM332.014 614.401s11.745.618 14.836 11.436c3.091 10.818-1.236 29.259-7.418 24.829-6.181-4.431-10.199-25.448-7.418-36.265z" class="colored7e94 svgShape"></path><path fill="#3f327a" d="M242.153 976.977s64.902-65.829 79.737-108.48c14.835-42.65-31.189-50.932-31.189-50.932s-121.795 139.881-146.829 206.667h101.132c3.118-16.228 6.691-32.257 10.565-48.246-4.618.104-9.103.423-13.416.991z" class="color3f327a svgShape"></path><path fill="#322666" d="M255.569 975.987c-3.874 15.988-7.447 32.017-10.565 48.246h183.958c.001 0-102.538-49.82-173.393-48.246z" class="color322666 svgShape"></path><path fill="#322666" d="M242.153 976.977s64.902-65.829 79.737-108.48c12.145-34.917-16.496-46.797-27.282-49.957-7.378 44.276-29.219 110.758-92.096 169.222l146.248 36.471h80.202c.001 0-116.343-56.528-186.809-47.256z" class="color322666 svgShape"></path><path fill="#3f327a" d="M366.528 822.923s19.159 10.921 17.512 30.701c-1.646 19.781-24.518 31.525-24.518 31.525s-3.709 45.125-28.435 89.632c0 0 105.703-7.418 224.388 49.452H253.201s21.429-113.121 42.034-150.21c0 0-15.866-34.822-4.533-56.457 0-.001 53.778-39.562 75.826 5.357z" class="color3f327a svgShape"></path><path fill="#322666" d="M384.04 853.624c1.646-19.781-17.512-30.701-17.512-30.701a50.443 50.443 0 0 0-3.278-5.736c6.683 20.64 7.526 45.758-20.802 56.837 0 0-19.756 91.486-44.92 117.448 0 0 187.294 1.185 253.788 30.795-116.983-54.728-220.229-47.485-220.229-47.485 24.726-44.507 28.435-89.632 28.435-89.632s22.872-11.745 24.518-31.526z" class="color322666 svgShape"></path><path fill="#ed7e94" d="M452.102 665.889c.314-.265.632-.531.966-.8 12.775-10.303-28.023-14.424-28.023-14.424s3.749 6.911-.091 16.358c8.973 1.446 18.241.826 27.148-1.134z" class="colored7e94 svgShape"></path><path fill="#ed7e94" d="m483.976 639.745-36.265-25.344-7.789 4.214c2.912 5.197 7.987 8.896 12.323 13.712 5.563 6.8 3.091 16.072-4.327 21.017-8.086 5.84-17.152 6.78-26.011 5.436 6.727 3.326 16.765 6.309 31.162 6.309 32.555 0 30.907-25.344 30.907-25.344z" class="colored7e94 svgShape"></path><path fill="#ff96a9" d="M447.917 653.344c7.418-4.945 9.89-14.217 4.327-21.017-4.335-4.817-9.411-8.515-12.323-13.712L422.573 628l2.473 4.945-14.836 16.896s3.212 4.743 11.696 8.939c8.859 1.345 17.925.404 26.011-5.436z" class="colorff96a9 svgShape"></path><path fill="#322666" d="M466.256 639.951s-39.561-28.023-41.21-68.821c0 0 50.688 30.907 72.117 82.832 0 0-19.369 14.423-44.095 11.127l12.363-17.308s7.83 5.357 10.302-4.945c2.473-10.303-11.95-1.237-9.477-2.885z" class="color322666 svgShape"></path><path fill="#e8c3eb" d="M284.773 641.606a215.67 215.67 0 0 0-5.736 13.37c3.645 7.888 9.61 14.815 16.909 19.117A216.774 216.774 0 0 1 297.949 663c-6.26-5.655-10.988-13.37-13.176-21.394z" class="colore8c3eb svgShape"></path><path fill="#e8c3eb" d="M300.899 676.52a117.476 117.476 0 0 1 2.481-9.384 38.957 38.957 0 0 1-5.431-4.136 216.774 216.774 0 0 0-2.003 11.093 34.926 34.926 0 0 0 4.953 2.427zM272.981 757.811c-2.331-6.119-4.932-12.102-7.165-18.204a176.286 176.286 0 0 0 4.692 28.919s47.81-8.503 81.38-33.383c.88-10.528 3.231-20.982 6.397-31.11-28.434 17.925-56.251 37.088-85.304 53.778z" class="colore8c3eb svgShape"></path><path fill="#e8c3eb" d="M297.273 720.9c-.348-9.465-.256-26.905 3.626-44.38a34.873 34.873 0 0 1-4.953-2.427c-2.381 15.612-2.771 31.491 1.327 46.807z" class="colore8c3eb svgShape"></path><path fill="#f6def8" d="M519.004 825.189c35.945-21.77 58.199-58.883 68.475-98.771-8.378 2.451-17.337 2.859-25.607.507-6.766 18.661-20.099 47.752-40.808 60.62l-37.075-83.719-41.636-21.429-28.023-1.648-43.682 4.121-71.406 42.359-1.536.911s-.267-2.706-.434-7.24c-4.098-15.315-3.709-31.195-1.327-46.807-7.299-4.302-13.264-11.229-16.909-19.117-8.537 21.909-15.815 51.25-13.22 84.631 2.233 6.103 4.834 12.086 7.165 18.204 29.053-16.69 56.87-35.853 85.304-53.779-3.165 10.129-5.516 20.582-6.397 31.11a110.476 110.476 0 0 0 7.633-6.179l99.654 9.471c4.364-4.562 7.766-10.123 9.758-17.095 4.328 38.327 19.164 79.124 50.071 103.85z" class="colorf6def8 svgShape"></path><path fill="#e8c3eb" d="M587.48 726.418c-10.277 39.888-32.53 77.002-68.475 98.771-30.907-24.726-45.743-65.524-50.07-103.849-1.992 6.972-5.395 12.533-9.758 17.095l.074.007s8.242 68.408 62.227 105.085c0 0 54.199-55.149 72.952-119.66a54.363 54.363 0 0 1-6.95 2.551z" class="colore8c3eb svgShape"></path><path fill="#e8c3eb" d="M564.877 718.075a223.78 223.78 0 0 1-3.004 8.851c10.611 3.017 22.362 1.508 32.555-3.057a171.716 171.716 0 0 0 3.391-13.669c-10.072 5.513-21.532 8.614-32.942 7.875z" class="colore8c3eb svgShape"></path><path fill="#ed7e94" d="M583.292 697.233c-7.418 6.182-17.308 8.654-26.58 4.945-2.927-1.331-5.278-3.695-7.01-6.595 2.123 9.573 6.379 17.942 17.518 14.425 0 0-.503 2.012-1.523 5.407a158.025 158.025 0 0 0 17.595-18.182z" class="colored7e94 svgShape"></path><path fill="#ff96a9" d="M583.343 654.264c-15.785 1.009-36.461 22.514-35.492 29.781.476 3.569.988 7.652 1.85 11.538 1.732 2.899 4.083 5.264 7.01 6.595 9.272 3.709 19.163 1.236 26.58-4.945a157.78 157.78 0 0 1-17.595 18.182c-.244.811-.516 1.699-.82 2.66 8.669.561 17.366-1.098 25.462-4.344.898-4.662 1.64-9.344 2.225-14.026 1.977-14.325 2.372-35.36-9.22-45.441z" class="colorff96a9 svgShape"></path><path fill="#ed7e94" d="M583.343 654.264c11.592 10.081 11.197 31.116 9.221 45.441a215.45 215.45 0 0 1-2.225 14.026 69.162 69.162 0 0 0 7.481-3.532c1.069-5.253 1.88-10.543 2.368-15.851 2.887-31.423-5.777-40.791-16.845-40.084zM323.051 655.199c-9.272 2.472-19.781-4.945-19.781-14.218-1.911 7.166-3.778 14.538-5.322 22.019a39.016 39.016 0 0 0 5.431 4.136c1.181-3.8 2.573-7.534 4.217-11.113 0 0 0 10.302 11.127 7.006 6.379-1.89 17.97-11.299 22.16-23.526-3.4 7.743-8.653 14.227-17.832 15.696z" class="colored7e94 svgShape"></path><path fill="#ff96a9" d="M332.736 609.456c-6.181-6.182-26.065-4.945-32.556 4.945-1.268 1.933-8.112 11.675-15.407 27.205 2.188 8.025 6.916 15.739 13.176 21.395 1.543-7.481 3.411-14.853 5.322-22.019 0 9.272 10.508 16.69 19.781 14.218 9.179-1.469 14.432-7.953 17.833-15.697 3.117-9.101 2.137-19.761-8.149-30.047z" class="colorff96a9 svgShape"></path><path fill="#322666" d="M290.702 817.565s.419-.306 1.265-.778c-.288.112-.577.222-.864.336-.135.148-.265.295-.401.442zM303.895 812.677c11.989-2.402 32.452-2.487 62.632 10.245 0 0 .553-1.721 1.699-4.478-10.867-5.809-22.871-9.914-35.106-11.614a159.912 159.912 0 0 0-29.225 5.847z" class="color322666 svgShape"></path><path fill="#e8c3eb" d="M468.934 721.34c-8.654 30.289-43.889 33.998-69.233 44.507-17.308 6.8-29.671 22.872-35.853 40.798-10.14-.966-20.469-.887-30.728.186 12.235 1.7 24.239 5.805 35.106 11.614 3.906-9.397 14.717-30.865 34.153-37.556 25.138-8.654 57.282-22.253 67.172-45.743.342-.812.669-1.593.988-2.355a218.713 218.713 0 0 1-1.605-11.451z" class="colore8c3eb svgShape"></path><path fill="#f6def8" d="M366.528 696.408s-32.968 14.424-43.682 34.204c-9.847 18.178-2.299 47.841-25.318 78.754 11.514-3.559 23.659-4.194 35.593-2.536 10.259-1.073 20.588-1.152 30.728-.186 6.181-17.926 18.544-33.998 35.853-40.798 25.344-10.508 60.578-14.217 69.233-44.507.429 3.799.965 7.622 1.606 11.451 8.9-21.269 8.902-23.195 8.902-23.195l-112.915-13.187z" class="colorf6def8 svgShape"></path><path fill="#322666" d="M297.528 809.367a98.707 98.707 0 0 1-6.425 7.756c.287-.114.576-.224.864-.336 1.853-1.035 5.774-2.877 11.929-4.11a159.721 159.721 0 0 1 29.226-5.847c-11.935-1.657-24.08-1.022-35.594 2.537z" class="color322666 svgShape"></path><path fill="#ffffff" d="m419.688 642.011 10.096 5.975s-5.769 4.121-9.066 2.679c-3.296-1.442-1.03-8.654-1.03-8.654z" class="colorfff svgShape"></path><path fill="#ff96a9" d="M452.102 665.889c-8.907 1.96-18.175 2.58-27.147 1.134-1.708 4.202-4.915 8.905-10.624 13.726l-11.951 19.369 39.974-17.72c0-.001-1.949-6.646 9.748-16.509z" class="colorff96a9 svgShape"></path><path fill="#e8c3eb" d="m402.38 686.223-25.859 21.827 23.387-6.078 2.472 16.278 43.065-27.817-41.107 22.253-1.958-12.569-15.162 2.885zM443.18 732.159c-.106 0-.214-.012-.322-.034-17.233-3.649-37.545-5.723-37.748-5.743a1.546 1.546 0 0 1 .311-3.075c.205.021 20.683 2.111 38.078 5.795a1.545 1.545 0 0 1-.319 3.057z" class="colore8c3eb svgShape"></path><path fill="#e5649a" d="m399.908 701.972-10.16 2.64-4.475 9.311 15.542-5.976z" class="colore5649a svgShape"></path><path fill="#e5649a" d="M368.794 805.409c-23.441-32.589-5.634-73.108 22.117-96.617l.048-.072c-113.879 76.65-6.368 146.707-6.368 146.707l45.525-13.187-.038-.097c-24.42-1.387-46.652-16.684-61.284-36.734z" class="colore5649a svgShape"></path><path fill="#db4a87" d="M390.911 708.791c-27.751 23.509-45.558 64.028-22.117 96.617 14.631 20.05 36.864 35.347 61.283 36.734l-13.776-34.931c-80.568-14.991-27.203-95.715-25.39-98.42z" class="colordb4a87 svgShape"></path><path fill="#ffffff" d="M300.899 669.203c0 1.142-.754 2.067-1.683 2.067s-1.683-.926-1.683-2.067c0-1.142.754-2.067 1.683-2.067.93 0 1.683.925 1.683 2.067z" class="colorfff svgShape"></path><path fill="#e8c3eb" d="M334.483 794.282c0 1.142-.754 2.067-1.683 2.067s-1.683-.926-1.683-2.067c0-1.142.754-2.067 1.683-2.067s1.683.925 1.683 2.067z" class="colore8c3eb svgShape"></path><path fill="#ffffff" d="M593.729 719.346c0 1.142-.753 2.067-1.683 2.067s-1.683-.926-1.683-2.067c0-1.142.754-2.067 1.683-2.067s1.683.926 1.683 2.067z" class="colorfff svgShape"></path><path fill="#322666" d="M526.359 1011.408V981.58l133.583 42.652H552.384c0 .001-22.38-5.249-26.025-12.824z" class="color322666 svgShape"></path><path fill="#f2f0ff" d="M1655.967 468.979h-214.186l57.836-7.933s4.545-10.457 16.805-13.342 20.193 3.606 20.193 3.606 1.803-11.178 12.26-15.866c10.457-4.688 19.832-2.524 19.832-2.524s12.981-27.765 39.303-16.947c26.323 10.818 15.505 34.977-29.928 37.861l77.885 15.145zM663.665 323.378h-368s1.333-42.889 52.667-30.444c0 0-28.667-47.556 51.333-52.222 80-4.667 84 41.333 84 41.333s34.667-26 59.333-8c24.667 18-39.333 29.333-39.333 29.333l160 20zM1847.745 1294.672H126.423c-1.798 0-3.255-1.135-3.255-2.534 0-1.399 1.457-2.534 3.255-2.534h1721.322c1.797 0 3.255 1.135 3.255 2.534 0 1.399-1.458 2.534-3.255 2.534z" class="colorf2f0ff svgShape"></path><path fill="#ffcc46" d="M1084.85 999.258c-32.712-50.65-73.865-92.859-127.68-117.129a555.043 555.043 0 0 0-27.734-11.181H765.552v416.481h323.552c8.573-19.832 15.724-40.525 21.071-62.356 17.939-77.03 17.939-157.226-25.325-225.815z" class="colorffcc46 svgShape"></path><path fill="#ffd566" d="M1209.917 870.948H929.436a556.003 556.003 0 0 1 27.734 11.181c53.816 24.27 94.969 66.478 127.68 117.129 43.264 68.589 43.264 148.785 25.325 225.815-5.347 21.832-12.498 42.524-21.071 62.356h120.813V870.948z" class="colorffd566 svgShape"></path><path fill="#edb111" d="M797.173 1259.729V870.948h-31.621v416.481h444.365v-27.7z" class="coloredb111 svgShape"></path><path fill="#edb111" d="M1065.054 1175.768v11.637h-129.58v-11.637h34.911V961.584l-32.395 7.863-3.146-12.266 85.234-21.387h18.242v239.974h26.734z" class="coloredb111 svgShape"></path><path fill="#fe9736" d="M1591.256 1136.162h-193.313v151.268h290.108a213.099 213.099 0 0 0 4.484-13.817c2.789-72.475-42.436-113.726-101.279-137.451z" class="colorfe9736 svgShape"></path><path fill="#feae63" d="M1842.308 1136.162h-251.052c58.842 23.726 104.067 64.976 101.28 137.451a214.535 214.535 0 0 1-4.484 13.817h154.256v-151.268z" class="colorfeae63 svgShape"></path><path fill="#f27907" d="M1430.818 1253.663v-117.501h-32.875v151.267h444.365v-33.766z" class="colorf27907 svgShape"></path><path fill="#ffa42f" d="M458.17 1124.828c-22.077-47.686-64.849-79.107-111.613-100.46H136.928v263.062h303.079c13.559-19.957 23.482-42.422 27.66-68.688 5.276-32.712 3.165-64.368-9.497-93.914z" class="colorffa42f svgShape"></path><path fill="#ffba61" d="M581.292 1024.368H346.557c46.764 21.354 89.536 52.774 111.613 100.46 12.662 29.546 14.773 61.202 9.497 93.914-4.179 26.266-14.101 48.73-27.66 68.688h141.286v-263.062z" class="colorffba61 svgShape"></path><path fill="#ed8b0c" d="M167.864 1267.692v-243.324h-30.936v263.061h444.364v-19.737z" class="colored8b0c svgShape"></path></svg>